<?xml version="1.0" encoding="UTF-8"?>
<svg width="16" height="16" viewBox="0 0 16 16" xmlns="http://www.w3.org/2000/svg">
  <defs>
    <linearGradient id="configGrad" x1="0%" y1="0%" x2="100%" y2="100%">
      <stop offset="0%" style="stop-color:#9B59B6;stop-opacity:1" />
      <stop offset="100%" style="stop-color:#6A1B9A;stop-opacity:1" />
    </linearGradient>
  </defs>
  <!-- File background -->
  <path d="M2 1 L10 1 L14 5 L14 15 L2 15 Z" fill="url(#configGrad)" stroke="#4A148C" stroke-width="0.5"/>
  <!-- File fold -->
  <path d="M10 1 L10 5 L14 5" fill="none" stroke="#4A148C" stroke-width="0.5"/>
  <!-- Config gear icon -->
  <g transform="translate(8,9)">
    <circle cx="0" cy="0" r="2.2" fill="white" opacity="0.2"/>
    <path d="M-1.5,-0.3 L-1.5,0.3 L-1.2,0.5 L-0.5,0.5 L-0.5,1.5 L0.5,1.5 L0.5,0.5 L1.2,0.5 L1.5,0.3 L1.5,-0.3 L1.2,-0.5 L0.5,-0.5 L0.5,-1.5 L-0.5,-1.5 L-0.5,-0.5 L-1.2,-0.5 Z" fill="white"/>
    <circle cx="0" cy="0" r="0.7" fill="url(#configGrad)"/>
  </g>
</svg>